<mxfile host="app.diagrams.net" agent="Mozilla/5.0 (Windows NT 10.0; Win64; x64) AppleWebKit/537.36 (KHTML, like Gecko) Chrome/128.0.0.0 Safari/537.36" version="24.7.12">
  <diagram name="Page-1" id="64c3da0e-402f-94eb-ee01-a36477274f13">
    <mxGraphModel dx="2049" dy="1169" grid="1" gridSize="10" guides="1" tooltips="1" connect="1" arrows="1" fold="1" page="1" pageScale="1" pageWidth="1169" pageHeight="826" background="none" math="0" shadow="0">
      <root>
        <mxCell id="0" />
        <mxCell id="1" parent="0" />
        <mxCell id="2" value="Projeto &quot;Ilha do pão&quot;" style="whiteSpace=wrap;rounded=1;shadow=1;fillColor=#10739E;strokeColor=none;fontColor=#FFFFFF;fontStyle=1;fontSize=24;" parent="1" vertex="1">
          <mxGeometry x="1000" y="30" width="340" height="60" as="geometry" />
        </mxCell>
        <mxCell id="7" value="1 Implantação de minipadaria " style="whiteSpace=wrap;rounded=1;fillColor=#F2931E;strokeColor=none;shadow=1;fontColor=#FFFFFF;fontStyle=1;fontSize=18;" parent="1" vertex="1">
          <mxGeometry x="1070" y="150" width="200" height="60" as="geometry" />
        </mxCell>
        <mxCell id="155" value="1.1 Definição do local " style="whiteSpace=wrap;rounded=1;fillColor=#12AAB5;strokeColor=none;shadow=1;fontColor=#FFFFFF;fontSize=17;" parent="1" vertex="1">
          <mxGeometry x="509.9999999999998" y="310.0000000000002" width="120" height="60" as="geometry" />
        </mxCell>
        <mxCell id="156" value="1.2 Contratação " style="whiteSpace=wrap;rounded=1;fillColor=#12AAB5;strokeColor=none;shadow=1;fontColor=#FFFFFF;fontSize=17;" parent="1" vertex="1">
          <mxGeometry x="709.9999999999998" y="310.0000000000002" width="120" height="60" as="geometry" />
        </mxCell>
        <mxCell id="157" value="1.1.1 Estudo de campo para escolha do local " style="whiteSpace=wrap;rounded=1;fillColor=#999999;strokeColor=none;shadow=1;fontColor=#FFFFFF;fontStyle=0;fontSize=14;" parent="1" vertex="1">
          <mxGeometry x="509.9999999999998" y="410.0000000000002" width="120" height="60" as="geometry" />
        </mxCell>
        <mxCell id="158" value="1.1.2 Relatório de viabilidade do local  " style="whiteSpace=wrap;rounded=1;fillColor=#999999;strokeColor=none;shadow=1;fontColor=#FFFFFF;fontStyle=0;fontSize=14;" parent="1" vertex="1">
          <mxGeometry x="510" y="490.0000000000002" width="120" height="60" as="geometry" />
        </mxCell>
        <mxCell id="159" value="1.1.3 Definição de local " style="whiteSpace=wrap;rounded=1;fillColor=#999999;strokeColor=none;shadow=1;fontColor=#FFFFFF;fontStyle=0;fontSize=14;" parent="1" vertex="1">
          <mxGeometry x="509.9999999999998" y="570.0000000000002" width="120" height="60" as="geometry" />
        </mxCell>
        <mxCell id="162" value="1.2.1 Redação de contrato" style="whiteSpace=wrap;rounded=1;fillColor=#999999;strokeColor=none;shadow=1;fontColor=#FFFFFF;fontStyle=0;fontSize=14;" parent="1" vertex="1">
          <mxGeometry x="709.9999999999993" y="410.0000000000002" width="120" height="60" as="geometry" />
        </mxCell>
        <mxCell id="163" value="1.2.2 Assinatura de contrato " style="whiteSpace=wrap;rounded=1;fillColor=#999999;strokeColor=none;shadow=1;fontColor=#FFFFFF;fontStyle=0;fontSize=14;" parent="1" vertex="1">
          <mxGeometry x="709.9999999999995" y="490.0000000000002" width="120" height="60" as="geometry" />
        </mxCell>
        <mxCell id="167" value="" style="edgeStyle=elbowEdgeStyle;elbow=horizontal;rounded=0;fontColor=#000000;endArrow=none;endFill=0;strokeWidth=8;strokeColor=#23445D;fontSize=14;" parent="1" source="155" target="157" edge="1">
          <mxGeometry width="100" height="100" relative="1" as="geometry">
            <mxPoint x="490" y="340.00000000000057" as="sourcePoint" />
            <mxPoint x="499.99999999999955" y="440.0000000000001" as="targetPoint" />
            <Array as="points">
              <mxPoint x="490" y="390.0000000000001" />
            </Array>
          </mxGeometry>
        </mxCell>
        <mxCell id="168" value="" style="edgeStyle=elbowEdgeStyle;elbow=horizontal;rounded=0;fontColor=#000000;endArrow=none;endFill=0;strokeWidth=8;strokeColor=#23445D;fontSize=14;" parent="1" source="155" target="158" edge="1">
          <mxGeometry width="100" height="100" relative="1" as="geometry">
            <mxPoint x="500" y="340.0000000000001" as="sourcePoint" />
            <mxPoint x="499.9999999999998" y="520.0000000000001" as="targetPoint" />
            <Array as="points">
              <mxPoint x="490" y="430.0000000000001" />
            </Array>
          </mxGeometry>
        </mxCell>
        <mxCell id="171" value="" style="edgeStyle=elbowEdgeStyle;elbow=horizontal;rounded=0;fontColor=#000000;endArrow=none;endFill=0;strokeWidth=8;strokeColor=#23445D;fontSize=14;" parent="1" source="155" target="159" edge="1">
          <mxGeometry width="100" height="100" relative="1" as="geometry">
            <mxPoint x="500" y="340.0000000000001" as="sourcePoint" />
            <mxPoint x="499.9999999999998" y="600.0000000000001" as="targetPoint" />
            <Array as="points">
              <mxPoint x="490" y="480.0000000000001" />
            </Array>
          </mxGeometry>
        </mxCell>
        <mxCell id="172" value="" style="edgeStyle=elbowEdgeStyle;elbow=horizontal;rounded=0;fontColor=#000000;endArrow=none;endFill=0;strokeWidth=8;strokeColor=#23445D;fontSize=14;" parent="1" source="156" target="162" edge="1">
          <mxGeometry width="100" height="100" relative="1" as="geometry">
            <mxPoint x="680" y="340.00000000000057" as="sourcePoint" />
            <mxPoint x="689.9999999999995" y="440.0000000000001" as="targetPoint" />
            <Array as="points">
              <mxPoint x="690" y="390.0000000000001" />
            </Array>
          </mxGeometry>
        </mxCell>
        <mxCell id="173" value="" style="edgeStyle=elbowEdgeStyle;elbow=horizontal;rounded=0;fontColor=#000000;endArrow=none;endFill=0;strokeWidth=8;strokeColor=#23445D;fontSize=14;" parent="1" source="156" target="163" edge="1">
          <mxGeometry width="100" height="100" relative="1" as="geometry">
            <mxPoint x="690" y="340.0000000000001" as="sourcePoint" />
            <mxPoint x="689.9999999999998" y="520.0000000000001" as="targetPoint" />
            <Array as="points">
              <mxPoint x="690" y="430.0000000000001" />
            </Array>
          </mxGeometry>
        </mxCell>
        <mxCell id="223" value="" style="edgeStyle=elbowEdgeStyle;elbow=vertical;rounded=0;fontColor=#000000;endArrow=none;endFill=0;strokeWidth=8;strokeColor=#23445D;fontSize=14;" parent="1" source="7" target="155" edge="1">
          <mxGeometry width="100" height="100" relative="1" as="geometry">
            <mxPoint x="1340" y="300" as="sourcePoint" />
            <mxPoint x="1240" y="190" as="targetPoint" />
          </mxGeometry>
        </mxCell>
        <mxCell id="224" value="" style="edgeStyle=elbowEdgeStyle;elbow=vertical;rounded=0;fontColor=#000000;endArrow=none;endFill=0;strokeWidth=8;strokeColor=#23445D;fontSize=14;" parent="1" source="7" target="156" edge="1">
          <mxGeometry width="100" height="100" relative="1" as="geometry">
            <mxPoint x="1430" y="290" as="sourcePoint" />
            <mxPoint x="1530" y="190" as="targetPoint" />
          </mxGeometry>
        </mxCell>
        <mxCell id="232" value="" style="edgeStyle=elbowEdgeStyle;elbow=vertical;rounded=0;fontColor=#000000;endArrow=none;endFill=0;strokeWidth=8;strokeColor=#23445D;fontSize=14;" parent="1" source="2" target="7" edge="1">
          <mxGeometry width="100" height="100" relative="1" as="geometry">
            <mxPoint x="570" y="170" as="sourcePoint" />
            <mxPoint x="670" y="70" as="targetPoint" />
          </mxGeometry>
        </mxCell>
        <mxCell id="jtFYtcCPkNyFqNUBZAEi-272" value="1.4 Transporte &#xa; " style="whiteSpace=wrap;rounded=1;fillColor=#12AAB5;strokeColor=none;shadow=1;fontColor=#FFFFFF;fontSize=17;" vertex="1" parent="1">
          <mxGeometry x="1109.9999999999998" y="310.0000000000002" width="120" height="60" as="geometry" />
        </mxCell>
        <mxCell id="jtFYtcCPkNyFqNUBZAEi-273" value="1.4.1 Programação da entrega  " style="whiteSpace=wrap;rounded=1;fillColor=#999999;strokeColor=none;shadow=1;fontColor=#FFFFFF;fontStyle=0;fontSize=14;" vertex="1" parent="1">
          <mxGeometry x="1109.9999999999998" y="410.0000000000002" width="120" height="60" as="geometry" />
        </mxCell>
        <mxCell id="jtFYtcCPkNyFqNUBZAEi-274" value="1.4.2 Materiais entregues " style="whiteSpace=wrap;rounded=1;fillColor=#999999;strokeColor=none;shadow=1;fontColor=#FFFFFF;fontStyle=0;fontSize=14;" vertex="1" parent="1">
          <mxGeometry x="1110" y="490.0000000000002" width="120" height="60" as="geometry" />
        </mxCell>
        <mxCell id="jtFYtcCPkNyFqNUBZAEi-278" value="" style="edgeStyle=elbowEdgeStyle;elbow=horizontal;rounded=0;fontColor=#000000;endArrow=none;endFill=0;strokeWidth=8;strokeColor=#23445D;fontSize=14;" edge="1" parent="1" source="jtFYtcCPkNyFqNUBZAEi-272" target="jtFYtcCPkNyFqNUBZAEi-273">
          <mxGeometry width="100" height="100" relative="1" as="geometry">
            <mxPoint x="1090" y="340.00000000000057" as="sourcePoint" />
            <mxPoint x="1099.9999999999995" y="440.0000000000001" as="targetPoint" />
            <Array as="points">
              <mxPoint x="1090" y="390.0000000000001" />
            </Array>
          </mxGeometry>
        </mxCell>
        <mxCell id="jtFYtcCPkNyFqNUBZAEi-279" value="" style="edgeStyle=elbowEdgeStyle;elbow=horizontal;rounded=0;fontColor=#000000;endArrow=none;endFill=0;strokeWidth=8;strokeColor=#23445D;fontSize=14;" edge="1" parent="1" source="jtFYtcCPkNyFqNUBZAEi-272" target="jtFYtcCPkNyFqNUBZAEi-274">
          <mxGeometry width="100" height="100" relative="1" as="geometry">
            <mxPoint x="1100" y="340.0000000000001" as="sourcePoint" />
            <mxPoint x="1099.9999999999998" y="520.0000000000001" as="targetPoint" />
            <Array as="points">
              <mxPoint x="1090" y="430.0000000000001" />
            </Array>
          </mxGeometry>
        </mxCell>
        <mxCell id="jtFYtcCPkNyFqNUBZAEi-283" value="1.3 Treinamento " style="whiteSpace=wrap;rounded=1;fillColor=#12AAB5;strokeColor=none;shadow=1;fontColor=#FFFFFF;fontSize=17;" vertex="1" parent="1">
          <mxGeometry x="909.9999999999998" y="310.0000000000002" width="120" height="60" as="geometry" />
        </mxCell>
        <mxCell id="jtFYtcCPkNyFqNUBZAEi-284" value="1.3.1 Plano de aula" style="whiteSpace=wrap;rounded=1;fillColor=#999999;strokeColor=none;shadow=1;fontColor=#FFFFFF;fontStyle=0;fontSize=14;" vertex="1" parent="1">
          <mxGeometry x="909.9999999999998" y="410.0000000000002" width="120" height="60" as="geometry" />
        </mxCell>
        <mxCell id="jtFYtcCPkNyFqNUBZAEi-285" value="1.3.2 Aula  " style="whiteSpace=wrap;rounded=1;fillColor=#999999;strokeColor=none;shadow=1;fontColor=#FFFFFF;fontStyle=0;fontSize=14;" vertex="1" parent="1">
          <mxGeometry x="910" y="490.0000000000002" width="120" height="60" as="geometry" />
        </mxCell>
        <mxCell id="jtFYtcCPkNyFqNUBZAEi-286" value="1.3.3 Certificação " style="whiteSpace=wrap;rounded=1;fillColor=#999999;strokeColor=none;shadow=1;fontColor=#FFFFFF;fontStyle=0;fontSize=14;" vertex="1" parent="1">
          <mxGeometry x="909.9999999999998" y="570.0000000000002" width="120" height="60" as="geometry" />
        </mxCell>
        <mxCell id="jtFYtcCPkNyFqNUBZAEi-289" value="" style="edgeStyle=elbowEdgeStyle;elbow=horizontal;rounded=0;fontColor=#000000;endArrow=none;endFill=0;strokeWidth=8;strokeColor=#23445D;fontSize=14;" edge="1" parent="1" source="jtFYtcCPkNyFqNUBZAEi-283" target="jtFYtcCPkNyFqNUBZAEi-284">
          <mxGeometry width="100" height="100" relative="1" as="geometry">
            <mxPoint x="890" y="340.00000000000057" as="sourcePoint" />
            <mxPoint x="899.9999999999995" y="440.0000000000001" as="targetPoint" />
            <Array as="points">
              <mxPoint x="890" y="390.0000000000001" />
            </Array>
          </mxGeometry>
        </mxCell>
        <mxCell id="jtFYtcCPkNyFqNUBZAEi-290" value="" style="edgeStyle=elbowEdgeStyle;elbow=horizontal;rounded=0;fontColor=#000000;endArrow=none;endFill=0;strokeWidth=8;strokeColor=#23445D;fontSize=14;" edge="1" parent="1" source="jtFYtcCPkNyFqNUBZAEi-283" target="jtFYtcCPkNyFqNUBZAEi-285">
          <mxGeometry width="100" height="100" relative="1" as="geometry">
            <mxPoint x="900" y="340.0000000000001" as="sourcePoint" />
            <mxPoint x="899.9999999999998" y="520.0000000000001" as="targetPoint" />
            <Array as="points">
              <mxPoint x="890" y="430.0000000000001" />
            </Array>
          </mxGeometry>
        </mxCell>
        <mxCell id="jtFYtcCPkNyFqNUBZAEi-293" value="" style="edgeStyle=elbowEdgeStyle;elbow=horizontal;rounded=0;fontColor=#000000;endArrow=none;endFill=0;strokeWidth=8;strokeColor=#23445D;fontSize=14;" edge="1" parent="1" source="jtFYtcCPkNyFqNUBZAEi-283" target="jtFYtcCPkNyFqNUBZAEi-286">
          <mxGeometry width="100" height="100" relative="1" as="geometry">
            <mxPoint x="900" y="340.0000000000001" as="sourcePoint" />
            <mxPoint x="899.9999999999998" y="600.0000000000001" as="targetPoint" />
            <Array as="points">
              <mxPoint x="890" y="480.0000000000001" />
            </Array>
          </mxGeometry>
        </mxCell>
        <mxCell id="jtFYtcCPkNyFqNUBZAEi-294" value="1.6 Fechamento  &#xa; " style="whiteSpace=wrap;rounded=1;fillColor=#12AAB5;strokeColor=none;shadow=1;fontColor=#FFFFFF;fontSize=17;" vertex="1" parent="1">
          <mxGeometry x="1510" y="310" width="120" height="60" as="geometry" />
        </mxCell>
        <mxCell id="jtFYtcCPkNyFqNUBZAEi-295" value="1.6.1 Relatório de correções do equipamento " style="whiteSpace=wrap;rounded=1;fillColor=#999999;strokeColor=none;shadow=1;fontColor=#FFFFFF;fontStyle=0;fontSize=14;" vertex="1" parent="1">
          <mxGeometry x="1510" y="410" width="120" height="60" as="geometry" />
        </mxCell>
        <mxCell id="jtFYtcCPkNyFqNUBZAEi-296" value="1.6.2 Relatório de avaliação da performance do equipamento " style="whiteSpace=wrap;rounded=1;fillColor=#999999;strokeColor=none;shadow=1;fontColor=#FFFFFF;fontStyle=0;fontSize=14;" vertex="1" parent="1">
          <mxGeometry x="1510" y="490" width="120" height="90" as="geometry" />
        </mxCell>
        <mxCell id="jtFYtcCPkNyFqNUBZAEi-297" value="1.6.3 Relatório de avaliação do atendimento e do produto&#xa;elaborado" style="whiteSpace=wrap;rounded=1;fillColor=#999999;strokeColor=none;shadow=1;fontColor=#FFFFFF;fontStyle=0;fontSize=14;" vertex="1" parent="1">
          <mxGeometry x="1510" y="600" width="120" height="100" as="geometry" />
        </mxCell>
        <mxCell id="jtFYtcCPkNyFqNUBZAEi-298" value="1.6.4 Relatório de lições aprendidas na implantação  " style="whiteSpace=wrap;rounded=1;fillColor=#999999;strokeColor=none;shadow=1;fontColor=#FFFFFF;fontStyle=0;fontSize=14;" vertex="1" parent="1">
          <mxGeometry x="1510.0000000000002" y="720" width="120" height="60" as="geometry" />
        </mxCell>
        <mxCell id="jtFYtcCPkNyFqNUBZAEi-300" value="" style="edgeStyle=elbowEdgeStyle;elbow=horizontal;rounded=0;fontColor=#000000;endArrow=none;endFill=0;strokeWidth=8;strokeColor=#23445D;fontSize=14;" edge="1" parent="1" source="jtFYtcCPkNyFqNUBZAEi-294" target="jtFYtcCPkNyFqNUBZAEi-295">
          <mxGeometry width="100" height="100" relative="1" as="geometry">
            <mxPoint x="1490.0000000000002" y="340.00000000000034" as="sourcePoint" />
            <mxPoint x="1499.9999999999998" y="439.9999999999999" as="targetPoint" />
            <Array as="points">
              <mxPoint x="1490.0000000000002" y="389.9999999999999" />
            </Array>
          </mxGeometry>
        </mxCell>
        <mxCell id="jtFYtcCPkNyFqNUBZAEi-301" value="" style="edgeStyle=elbowEdgeStyle;elbow=horizontal;rounded=0;fontColor=#000000;endArrow=none;endFill=0;strokeWidth=8;strokeColor=#23445D;fontSize=14;" edge="1" parent="1" source="jtFYtcCPkNyFqNUBZAEi-294" target="jtFYtcCPkNyFqNUBZAEi-296">
          <mxGeometry width="100" height="100" relative="1" as="geometry">
            <mxPoint x="1500.0000000000002" y="339.9999999999999" as="sourcePoint" />
            <mxPoint x="1500" y="519.9999999999999" as="targetPoint" />
            <Array as="points">
              <mxPoint x="1490.0000000000002" y="429.9999999999999" />
            </Array>
          </mxGeometry>
        </mxCell>
        <mxCell id="jtFYtcCPkNyFqNUBZAEi-303" value="" style="edgeStyle=elbowEdgeStyle;elbow=horizontal;rounded=0;fontColor=#000000;endArrow=none;endFill=0;strokeWidth=8;strokeColor=#23445D;fontSize=14;" edge="1" parent="1" source="jtFYtcCPkNyFqNUBZAEi-294" target="jtFYtcCPkNyFqNUBZAEi-298">
          <mxGeometry width="100" height="100" relative="1" as="geometry">
            <mxPoint x="1500.0000000000002" y="339.9999999999999" as="sourcePoint" />
            <mxPoint x="1500.0000000000002" y="679.9999999999999" as="targetPoint" />
            <Array as="points">
              <mxPoint x="1490.0000000000002" y="509.9999999999999" />
            </Array>
          </mxGeometry>
        </mxCell>
        <mxCell id="jtFYtcCPkNyFqNUBZAEi-304" value="" style="edgeStyle=elbowEdgeStyle;elbow=horizontal;rounded=0;fontColor=#000000;endArrow=none;endFill=0;strokeWidth=8;strokeColor=#23445D;fontSize=14;" edge="1" parent="1" source="jtFYtcCPkNyFqNUBZAEi-294" target="jtFYtcCPkNyFqNUBZAEi-297">
          <mxGeometry width="100" height="100" relative="1" as="geometry">
            <mxPoint x="1500.0000000000002" y="339.9999999999999" as="sourcePoint" />
            <mxPoint x="1500" y="599.9999999999999" as="targetPoint" />
            <Array as="points">
              <mxPoint x="1490.0000000000002" y="479.9999999999999" />
            </Array>
          </mxGeometry>
        </mxCell>
        <mxCell id="jtFYtcCPkNyFqNUBZAEi-305" value="1.5 Instalação&#xa; " style="whiteSpace=wrap;rounded=1;fillColor=#12AAB5;strokeColor=none;shadow=1;fontColor=#FFFFFF;fontSize=17;" vertex="1" parent="1">
          <mxGeometry x="1310" y="310" width="120" height="60" as="geometry" />
        </mxCell>
        <mxCell id="jtFYtcCPkNyFqNUBZAEi-306" value="1.5.1 Freezer  " style="whiteSpace=wrap;rounded=1;fillColor=#999999;strokeColor=none;shadow=1;fontColor=#FFFFFF;fontStyle=0;fontSize=14;" vertex="1" parent="1">
          <mxGeometry x="1310" y="410" width="120" height="60" as="geometry" />
        </mxCell>
        <mxCell id="jtFYtcCPkNyFqNUBZAEi-307" value="1.5.2 Forno  " style="whiteSpace=wrap;rounded=1;fillColor=#999999;strokeColor=none;shadow=1;fontColor=#FFFFFF;fontStyle=0;fontSize=14;" vertex="1" parent="1">
          <mxGeometry x="1310.0000000000002" y="490" width="120" height="60" as="geometry" />
        </mxCell>
        <mxCell id="jtFYtcCPkNyFqNUBZAEi-308" value="1.5.3 Balcão  " style="whiteSpace=wrap;rounded=1;fillColor=#999999;strokeColor=none;shadow=1;fontColor=#FFFFFF;fontStyle=0;fontSize=14;" vertex="1" parent="1">
          <mxGeometry x="1310" y="570" width="120" height="60" as="geometry" />
        </mxCell>
        <mxCell id="jtFYtcCPkNyFqNUBZAEi-309" value="1.5.4 Luminoso  " style="whiteSpace=wrap;rounded=1;fillColor=#999999;strokeColor=none;shadow=1;fontColor=#FFFFFF;fontStyle=0;fontSize=14;" vertex="1" parent="1">
          <mxGeometry x="1310.0000000000002" y="650" width="120" height="60" as="geometry" />
        </mxCell>
        <mxCell id="jtFYtcCPkNyFqNUBZAEi-310" value="1.5.5 Testes de equipamentos  " style="whiteSpace=wrap;rounded=1;fillColor=#999999;strokeColor=none;shadow=1;fontColor=#FFFFFF;fontStyle=0;fontSize=14;" vertex="1" parent="1">
          <mxGeometry x="1310.0000000000002" y="730" width="120" height="60" as="geometry" />
        </mxCell>
        <mxCell id="jtFYtcCPkNyFqNUBZAEi-311" value="" style="edgeStyle=elbowEdgeStyle;elbow=horizontal;rounded=0;fontColor=#000000;endArrow=none;endFill=0;strokeWidth=8;strokeColor=#23445D;fontSize=14;" edge="1" parent="1" source="jtFYtcCPkNyFqNUBZAEi-305" target="jtFYtcCPkNyFqNUBZAEi-306">
          <mxGeometry width="100" height="100" relative="1" as="geometry">
            <mxPoint x="1290.0000000000002" y="340.00000000000034" as="sourcePoint" />
            <mxPoint x="1299.9999999999998" y="439.9999999999999" as="targetPoint" />
            <Array as="points">
              <mxPoint x="1290.0000000000002" y="389.9999999999999" />
            </Array>
          </mxGeometry>
        </mxCell>
        <mxCell id="jtFYtcCPkNyFqNUBZAEi-312" value="" style="edgeStyle=elbowEdgeStyle;elbow=horizontal;rounded=0;fontColor=#000000;endArrow=none;endFill=0;strokeWidth=8;strokeColor=#23445D;fontSize=14;" edge="1" parent="1" source="jtFYtcCPkNyFqNUBZAEi-305" target="jtFYtcCPkNyFqNUBZAEi-307">
          <mxGeometry width="100" height="100" relative="1" as="geometry">
            <mxPoint x="1300.0000000000002" y="339.9999999999999" as="sourcePoint" />
            <mxPoint x="1300" y="519.9999999999999" as="targetPoint" />
            <Array as="points">
              <mxPoint x="1290.0000000000002" y="429.9999999999999" />
            </Array>
          </mxGeometry>
        </mxCell>
        <mxCell id="jtFYtcCPkNyFqNUBZAEi-313" value="" style="edgeStyle=elbowEdgeStyle;elbow=horizontal;rounded=0;fontColor=#000000;endArrow=none;endFill=0;strokeWidth=8;strokeColor=#23445D;fontSize=14;" edge="1" parent="1" source="jtFYtcCPkNyFqNUBZAEi-305" target="jtFYtcCPkNyFqNUBZAEi-310">
          <mxGeometry width="100" height="100" relative="1" as="geometry">
            <mxPoint x="1300.0000000000002" y="339.9999999999999" as="sourcePoint" />
            <mxPoint x="1300.0000000000002" y="759.9999999999999" as="targetPoint" />
            <Array as="points">
              <mxPoint x="1290.0000000000002" y="559.9999999999999" />
            </Array>
          </mxGeometry>
        </mxCell>
        <mxCell id="jtFYtcCPkNyFqNUBZAEi-314" value="" style="edgeStyle=elbowEdgeStyle;elbow=horizontal;rounded=0;fontColor=#000000;endArrow=none;endFill=0;strokeWidth=8;strokeColor=#23445D;fontSize=14;" edge="1" parent="1" source="jtFYtcCPkNyFqNUBZAEi-305" target="jtFYtcCPkNyFqNUBZAEi-309">
          <mxGeometry width="100" height="100" relative="1" as="geometry">
            <mxPoint x="1300.0000000000002" y="339.9999999999999" as="sourcePoint" />
            <mxPoint x="1300.0000000000002" y="679.9999999999999" as="targetPoint" />
            <Array as="points">
              <mxPoint x="1290.0000000000002" y="509.9999999999999" />
            </Array>
          </mxGeometry>
        </mxCell>
        <mxCell id="jtFYtcCPkNyFqNUBZAEi-315" value="" style="edgeStyle=elbowEdgeStyle;elbow=horizontal;rounded=0;fontColor=#000000;endArrow=none;endFill=0;strokeWidth=8;strokeColor=#23445D;fontSize=14;" edge="1" parent="1" source="jtFYtcCPkNyFqNUBZAEi-305" target="jtFYtcCPkNyFqNUBZAEi-308">
          <mxGeometry width="100" height="100" relative="1" as="geometry">
            <mxPoint x="1300.0000000000002" y="339.9999999999999" as="sourcePoint" />
            <mxPoint x="1300" y="599.9999999999999" as="targetPoint" />
            <Array as="points">
              <mxPoint x="1290.0000000000002" y="479.9999999999999" />
            </Array>
          </mxGeometry>
        </mxCell>
        <mxCell id="jtFYtcCPkNyFqNUBZAEi-316" value="1.7 Gerenciamento de projeto (GP) &#xa; " style="whiteSpace=wrap;rounded=1;fillColor=#12AAB5;strokeColor=none;shadow=1;fontColor=#FFFFFF;fontSize=17;" vertex="1" parent="1">
          <mxGeometry x="1710" y="310" width="120" height="60" as="geometry" />
        </mxCell>
        <mxCell id="jtFYtcCPkNyFqNUBZAEi-327" value="" style="edgeStyle=elbowEdgeStyle;elbow=vertical;rounded=0;fontColor=#000000;endArrow=none;endFill=0;strokeWidth=8;strokeColor=#23445D;entryX=0.5;entryY=0;entryDx=0;entryDy=0;exitX=0.5;exitY=1;exitDx=0;exitDy=0;fontSize=14;" edge="1" parent="1" source="7" target="jtFYtcCPkNyFqNUBZAEi-272">
          <mxGeometry width="100" height="100" relative="1" as="geometry">
            <mxPoint x="1170" y="260" as="sourcePoint" />
            <mxPoint x="1340" y="280" as="targetPoint" />
          </mxGeometry>
        </mxCell>
        <mxCell id="jtFYtcCPkNyFqNUBZAEi-328" value="" style="edgeStyle=elbowEdgeStyle;elbow=vertical;rounded=0;fontColor=#000000;endArrow=none;endFill=0;strokeWidth=8;strokeColor=#23445D;entryX=0.5;entryY=0;entryDx=0;entryDy=0;exitX=0.5;exitY=1;exitDx=0;exitDy=0;fontSize=14;" edge="1" parent="1" source="7" target="jtFYtcCPkNyFqNUBZAEi-283">
          <mxGeometry width="100" height="100" relative="1" as="geometry">
            <mxPoint x="1510" y="200" as="sourcePoint" />
            <mxPoint x="1120" y="300" as="targetPoint" />
          </mxGeometry>
        </mxCell>
        <mxCell id="jtFYtcCPkNyFqNUBZAEi-329" value="" style="edgeStyle=elbowEdgeStyle;elbow=vertical;rounded=0;fontColor=#000000;endArrow=none;endFill=0;strokeWidth=8;strokeColor=#23445D;entryX=0.5;entryY=0;entryDx=0;entryDy=0;exitX=0.5;exitY=1;exitDx=0;exitDy=0;fontSize=14;" edge="1" parent="1" source="7" target="jtFYtcCPkNyFqNUBZAEi-305">
          <mxGeometry width="100" height="100" relative="1" as="geometry">
            <mxPoint x="1420" y="170" as="sourcePoint" />
            <mxPoint x="1030" y="270" as="targetPoint" />
          </mxGeometry>
        </mxCell>
        <mxCell id="jtFYtcCPkNyFqNUBZAEi-330" value="" style="edgeStyle=elbowEdgeStyle;elbow=vertical;rounded=0;fontColor=#000000;endArrow=none;endFill=0;strokeWidth=8;strokeColor=#23445D;exitX=0.5;exitY=1;exitDx=0;exitDy=0;entryX=0.5;entryY=0;entryDx=0;entryDy=0;fontSize=14;" edge="1" parent="1" source="7" target="jtFYtcCPkNyFqNUBZAEi-294">
          <mxGeometry width="100" height="100" relative="1" as="geometry">
            <mxPoint x="1590" y="240" as="sourcePoint" />
            <mxPoint x="1200" y="340" as="targetPoint" />
          </mxGeometry>
        </mxCell>
        <mxCell id="jtFYtcCPkNyFqNUBZAEi-331" value="" style="edgeStyle=elbowEdgeStyle;elbow=vertical;rounded=0;fontColor=#000000;endArrow=none;endFill=0;strokeWidth=8;strokeColor=#23445D;entryX=0.5;entryY=0;entryDx=0;entryDy=0;exitX=0.5;exitY=1;exitDx=0;exitDy=0;fontSize=14;" edge="1" parent="1" source="7" target="jtFYtcCPkNyFqNUBZAEi-316">
          <mxGeometry width="100" height="100" relative="1" as="geometry">
            <mxPoint x="1800" y="100" as="sourcePoint" />
            <mxPoint x="1410" y="200" as="targetPoint" />
          </mxGeometry>
        </mxCell>
        <mxCell id="jtFYtcCPkNyFqNUBZAEi-332" value="1.5.5.1 Plano de testes  " style="whiteSpace=wrap;rounded=1;fillColor=#d5e8d4;strokeColor=#82b366;shadow=1;fontStyle=0;fontSize=14;" vertex="1" parent="1">
          <mxGeometry x="1310" y="826" width="120" height="60" as="geometry" />
        </mxCell>
        <mxCell id="jtFYtcCPkNyFqNUBZAEi-333" value="1.5.5.2 Testes  " style="whiteSpace=wrap;rounded=1;fillColor=#d5e8d4;strokeColor=#82b366;shadow=1;fontStyle=0;fontSize=14;" vertex="1" parent="1">
          <mxGeometry x="1310.0000000000002" y="906" width="120" height="60" as="geometry" />
        </mxCell>
        <mxCell id="jtFYtcCPkNyFqNUBZAEi-334" value="1.5.5.3 Relatório de testes " style="whiteSpace=wrap;rounded=1;fillColor=#d5e8d4;strokeColor=#82b366;shadow=1;fontStyle=0;fontSize=14;" vertex="1" parent="1">
          <mxGeometry x="1310" y="986" width="120" height="60" as="geometry" />
        </mxCell>
        <mxCell id="jtFYtcCPkNyFqNUBZAEi-336" value="" style="edgeStyle=elbowEdgeStyle;elbow=horizontal;rounded=0;fontColor=#000000;endArrow=none;endFill=0;strokeWidth=8;strokeColor=#23445D;exitX=1;exitY=0.5;exitDx=0;exitDy=0;fontSize=14;" edge="1" parent="1" target="jtFYtcCPkNyFqNUBZAEi-332" source="jtFYtcCPkNyFqNUBZAEi-310">
          <mxGeometry width="100" height="100" relative="1" as="geometry">
            <mxPoint x="1480" y="760" as="sourcePoint" />
            <mxPoint x="1469.9999999999998" y="859.9999999999999" as="targetPoint" />
            <Array as="points">
              <mxPoint x="1460.0000000000002" y="809.9999999999999" />
            </Array>
          </mxGeometry>
        </mxCell>
        <mxCell id="jtFYtcCPkNyFqNUBZAEi-337" value="" style="edgeStyle=elbowEdgeStyle;elbow=horizontal;rounded=0;fontColor=#000000;endArrow=none;endFill=0;strokeWidth=8;strokeColor=#23445D;exitX=1;exitY=0.5;exitDx=0;exitDy=0;fontSize=14;" edge="1" parent="1" target="jtFYtcCPkNyFqNUBZAEi-333" source="jtFYtcCPkNyFqNUBZAEi-310">
          <mxGeometry width="100" height="100" relative="1" as="geometry">
            <mxPoint x="1480" y="760" as="sourcePoint" />
            <mxPoint x="1470" y="939.9999999999999" as="targetPoint" />
            <Array as="points">
              <mxPoint x="1460.0000000000002" y="849.9999999999999" />
            </Array>
          </mxGeometry>
        </mxCell>
        <mxCell id="jtFYtcCPkNyFqNUBZAEi-339" value="" style="edgeStyle=elbowEdgeStyle;elbow=horizontal;rounded=0;fontColor=#000000;endArrow=none;endFill=0;strokeWidth=8;strokeColor=#23445D;exitX=1;exitY=0.5;exitDx=0;exitDy=0;fontSize=14;" edge="1" parent="1" target="jtFYtcCPkNyFqNUBZAEi-334" source="jtFYtcCPkNyFqNUBZAEi-310">
          <mxGeometry width="100" height="100" relative="1" as="geometry">
            <mxPoint x="1480" y="760" as="sourcePoint" />
            <mxPoint x="1470" y="1019.9999999999999" as="targetPoint" />
            <Array as="points">
              <mxPoint x="1460.0000000000002" y="899.9999999999999" />
            </Array>
          </mxGeometry>
        </mxCell>
      </root>
    </mxGraphModel>
  </diagram>
</mxfile>
